# xmcd CD database file
#
# Track frame offsets:
#	150
#	27431
#	53981
#	77376
#	100729
#	131436
#	160390
#	187320
#	211924
#	237547
#
# Disc length: 3630 seconds
#
# Revision: 0
# Processed by: cddbd v1.5.1PL0 Copyright (c) Steve Scherf et al.
# Submitted via: CDex 1.51
#
DISCID=860e2c0a
DTITLE=Justin Morrell - with Russell Ferrante, Jimmy Johnson, Peter Erskine
DYEAR=1996
DGENRE=Jazz
TTITLE0=Spaceshots
TTITLE1=Hi Noon
TTITLE2=Alena
TTITLE3=Canyon Song
TTITLE4=Clerks
TTITLE5=Knot Tubey
TTITLE6=Steph's Tune
TTITLE7=Forknot
TTITLE8=Mostly
TTITLE9=Tripod
EXTD=YEAR: 1996
EXTT0=
EXTT1=
EXTT2=
EXTT3=
EXTT4=
EXTT5=
EXTT6=
EXTT7=
EXTT8=
EXTT9=
PLAYORDER=
